<svg clip-rule="evenodd" fill-rule="evenodd" stroke-linecap="round" stroke-linejoin="round" viewBox="0 0 800 560" xmlns="http://www.w3.org/2000/svg"><g fill="none" stroke="#000" stroke-linecap="butt" stroke-linejoin="round" stroke-width=".5"><path d="m13.9791 337.328c13.4194-2.065 28.7181-5.072 41.9527-3.603 12.6847 1.408 26.4887-.555 38.8732 2.44 10.138 2.452 22.202 5.614 32.479 9.047 1.089.363 1.517.904 2.577 1.269 1.779.612 3.645 1.575 5.468 2.589 1.927 1.072 3.805 2.202 5.481 3.037 11.052 5.502 19.939 11.111 30.551 16.966 4.475 2.47 27.452 15.74 30.15 16.885 2.11.895 7.867 4.04 13.944 6.954 4.89 2.343 10.669 4.755 14.846 6.265 2.451.886 4.632.7 5.781.938 5.969 1.239 9.218-.54 12.702-1.197 13.594-2.564 30.546-14.853 40.489-18.239 4.635-1.579 12.278.367 16.732 1.455 9.273 2.266 19.494 2.151 28.851 4.437 12.173 2.974 23.007 9.084 35.128 12.025 7.601 1.844 14.252 8.457 20.603 13.938 2.72 2.347 5.496 3.812 8.084 5.713.498.366 19.286 12.951 19.244 13.15-.502 2.405-21.674-9.613-23.011-9.803-4.454-.631-8.105-6.087-12.984-8.852-9.941-5.635-22.592-11.609-31.726-13.426-11.744-2.335-23.273-8.928-34.956-10.928-23.917-4.096-55.893-4.206-44.644-37.816 2.85-8.516 12.494 1.458 20.51 3.619 21.006 5.665 37.158 17.192 56.887 25.009 15.019 5.951 30.423 11.008 44.021 20.019 1.11.736 10.581 9.808 16.405 15.659 2.155 2.167 6.946 7.53 7.716 8.05 1.024.692-7.957-5.342-9.055-5.825-.752-.331-9.877-6.927-10.746-7.358-9.764-4.843-20.674-11.585-22.657-12.327-25.156-9.416-51.297-19.434-75.489-31.477-10.526-5.24-21.621-4.413-19.123-15.134.22-.943-.173-4.555.398-5.225 2.236-2.625 12.011-11.511 15.765-11.886 3.607-.361 10.315 4.522 13.883 5.937 19.333 7.668 38.582 19.223 55.945 30.978 1.921 1.3 2.028 4.274 4.058 5.594 8.322 5.41 25.006 16.313 32.849 20.694.33.184 19.408 18.303 18.919 19.272-1.81 3.589-46.006-29.328-49.237-30.231-28.052-7.839-46.643-32.394-73.461-43.866-2.4-1.027-23.516-9.977-20.022-14.555 6.204-8.126 14.084-19.381 19.915-25.207.575-.574 2.145.483 2.62.937 5.168 4.942 9.826 10.233 16.024 13.933 22.382 13.362 44.053 28.902 62.416 47.004 5.255 5.181 45.746 39.571 40.701 45.879-1.382 1.728-16.685-17.888-17.91-18.703-5.752-3.829-12.772-4.681-18.454-8.459-13.626-9.061-25.642-21.664-37.079-33.035-8.481-8.432-17.199-10.295-25.973-20.425-5.834-6.737-17.244-8.16-20.478-17.479-.488-1.404-3.514-6.421-3.137-7.306 1.487-3.499 6.336-5.344 8.646-8.444 6.674-8.957 11.011-15.755 20.064-22.946 4.382-3.481 6.564-8.965 10.363-12.813 4.08-4.134 10.065-6.085 14.141-10.158 16.939-16.926 31.825-30.536 52.453-42.886 7.629-4.568 12.124-11.591 21.081-13.887 4.41-1.13 13.16 5.927 16.813 7.995 19.163 10.847 31.987 29.67 45.556 46.513 4.904 6.086 30.596 35.008 28.033 42.153-2.426 6.767-14.255 10.288-16.125 16.193-3.228 10.194-8.279 17.473-13.916 26.895-3.594 6.006-11.973 7.535-15.548 13.565-14.474 24.415-52.273 64.428-37.843 90.901 1.342 2.461 3.135 4.805 5.44 7.009 4.211 4.026 21.179-.978 28.152 2.353 22.358 10.682 48.243 15.013 71.938 22.886 15.466 5.139 31.383 11.028 47.468 16.399.282.094 13.954 5.199 14.843 3.5.725-1.386.321-9.295 2.107-12.149 2.881-4.602 8.928-5.688 10.545-11.782 2.78-10.471 1.976-25.116 7.994-35.159 5.213-8.699 10.69-15.854 15.491-25.473 3.485-6.983 2.392-14.212 6.526-21.07 7.461-12.374 7.625-34.441 16.987-43.9.5-.505 2.145-2.443 3.232-1.566 2.728 2.2-4.611 37.295-5.594 41.257-3.566 14.377-13.946 21.338-18.977 34.101-7.846 19.902-14.34 40.066-25.472 58.49-2.11 3.492-10.664 23.768-13.647 24.45-7.97 1.821-18.685-3.754-26.271-5.358-15.59-3.296-25.885-11.461-40.027-17.001-9.93-3.89-20.837-6.124-30.859-9.425l.295-.885c10.065 3.392 21.079 5.483 31.025 9.54 17.909 7.306 44.935 25.994 65.456 22.558 2.454-.411 14.577-26.608 16.753-30.927 8.584-17.035 14.823-34.168 21.982-51.824 2.347-5.786 7.541-9.073 11.023-13.977 7.416-10.441 7.653-22.184 8.947-34.402.423-3.987 4.626-6.401 5.46-10.32.396-1.863-.049-15.595-.094-15.663-1.376-2.071-5.801 5.914-6.159 7.31-2.994 11.659-7.254 27.514-13.548 38.054-6.264 10.49-9.048 24.894-14.005 36.899-1.988 4.814-8.357 7.258-9.344 13.251-1.97 11.949-3.276 22.422-7.415 33.25-1.511 3.955-7.368 6.771-9.528 9.767-2.369 3.284-.595 11.02-2.883 12.804-2.315 1.805-32.556-9.129-37.612-11.042-30.661-11.603-67.374-16.538-96.637-32.012-4.325-2.287-26.992-.809-28.195-2.04-27.346-28.004 14.518-70.628 31.928-99.321 5.036-8.298 14.775-11.151 19.408-20.413 5.602-11.198 11.689-19.878 19.951-27.901 2.492-2.42 7.575-5.413 6.01-8.514-7.181-14.23-17.205-27.422-27.99-40.997-13.413-16.884-26.279-35.353-45.275-46.314-3.698-2.135-12.197-8.928-16.125-7.975-8.901 2.16-13.353 9.558-20.841 14.061-20.659 12.422-35.367 25.957-52.351 42.953-3.958 3.96-9.814 5.868-13.806 9.805-4.423 4.362-7.045 10.063-12.042 14.099-9.873 7.973-14.658 17.796-23.408 26.499-.302.301-4.092 3.566-3.623 4.037 3.335 3.357 3.859 9.412 8.002 12.509 25.952 19.404 49.082 41.655 74.862 60.999 6.853 5.143 14.812 6.721 21.914 11.463 1.005.671 18.066 22.522 18.266 22.406 2.398-1.396-11.167-23.829-13.26-25.085-13.416-8.057-28.65-18.304-38.179-31.048-10.676-14.278-35.041-29.4-50.763-37.293-5.399-2.711-9.838-6.857-14.046-11.1-.142-.143-5.395-5.884-5.778-5.5-4.027 4.03-13.024 22.087-19.897 24.937-.732.304 1.088.338 1.291.573 5.824 6.741 25.409 16.368 34.114 21.664 14.343 8.726 26.393 19.905 39.718 28.913 6.022 4.071 14.423 4.148 20.982 7.005 7.954 3.465 36.42 29.02 44.452 29.103.207.002-10.411-11.033-15.377-15.819-3.625-3.492-7.227-5.866-7.534-6.069-2.262-1.499-4.414-2.927-6.978-3.97-5.56-2.262-19.428-9.351-22.646-14.124-6.71-9.955-43.725-29.297-55.687-33.664-2.479-.905-13.97-8.072-15.959-7.135-5.042 2.376-10.602 7.949-14.796 11.156-.478.365-.386 4.94-.601 5.754-.33 1.246-1.477 2.575-.596 3.516 5.478 5.847 12.35 8.041 22.803 12.253 19.709 7.942 39.781 14.5 59.52 22.525 10.291 4.184 31.51 20.815 44.868 28.129.534.292 1.055.569 1.562.83.314.162 1.614.911 1.916 1.06 1.157.571 6.605 4.419 7.506 4.463 1.14.056-10.913-9.29-13.006-13.259-1.381-2.618-9.161-9.167-11.888-10.563-7.214-3.694-14.62-7.324-21.957-10.982-20.989-10.463-43.514-18.843-64.301-29.372-9.964-5.047-21.833-6.644-31.444-11.536-.707-.359-3.631 1.437-2.943-.004.336-.704-2.042 6.59-2.006 9.163.118 8.185 1.811 20.509 9.071 22.999 11.183 3.837 24.805 5.148 36.586 7.059 15.659 2.54 48.064 11.974 61.667 20.717 8.879 5.706 16.108 9.255 19.172 11.548 3.065 2.293 3.377 4.344 6.582 4.344 1.665 0 16.3 14.473 14.824 13.702-8.05-4.206-33.233-34.504-43.206-36.559-18.421-3.796-34.94-13.227-53.787-16.441-8.083-1.378-22.777-6.328-31.19-3.576-12.77 4.178-33.737 20.929-51.688 19.676-.291-.021-3.588-.286-5.617-1.024-5.716-2.081-15.826-5.715-17.645-6.633-9.269-4.678-39.315-20.921-43.695-23.371-10.655-5.958-19.045-11.361-30.14-16.931-3.122-1.567-8.925-5.262-9.293-5.431-1.247-.57-2.666-1.016-4.107-1.61-2.604-1.072-5.983-2.022-9.081-2.98-7.802-2.414-16.925-4.303-23.538-6.016-12.3122-3.189-26.3272-1.143-38.9813-2.551-13.1882-1.466-30.0134 1.447-43.3896 3.206"/><path d="m13.9791 337.328c13.4194-2.065 28.7181-5.072 41.9527-3.603 12.6847 1.408 26.4887-.555 38.8732 2.44 10.138 2.452 22.202 5.614 32.479 9.047 1.089.363 1.517.904 2.577 1.269 1.779.612 3.645 1.575 5.468 2.589 1.927 1.072 3.805 2.202 5.481 3.037 11.052 5.502 19.939 11.111 30.551 16.966 4.475 2.47 27.452 15.74 30.15 16.885 2.11.895 7.867 4.04 13.944 6.954 4.89 2.343 8.463 2.915 12.64 4.425 2.451.886 4.997 1.357 6.146 1.596 5.503 1.142 7.839 1.137 11.095.476l5.319-1.186c1.583-.299 2.789-.859 4.511-1.413 13.071-4.205 29.448-14.842 38.233-17.833 4.636-1.579 8.863.838 13.317 1.926 9.272 2.265 18.783 3.382 28.14 5.668 12.173 2.974 23.007 9.084 35.128 12.025 7.601 1.844 14.252 8.457 20.603 13.938 2.72 2.347 5.496 3.812 8.084 5.713.498.366 19.286 12.951 19.244 13.15-.502 2.405-21.674-9.613-23.011-9.803-4.454-.631-8.105-6.087-12.984-8.852-9.941-5.635-22.592-11.609-31.726-13.426-11.744-2.335-23.273-8.928-34.956-10.928-23.917-4.096-55.893-4.206-44.644-37.816 2.85-8.516 12.494 1.458 20.51 3.619 21.006 5.665 37.158 17.192 56.887 25.009 15.019 5.951 30.423 11.008 44.021 20.019 1.11.736 10.581 9.808 16.405 15.659 2.155 2.167 6.946 7.53 7.716 8.05 1.024.692-7.957-5.342-9.055-5.825-.752-.331-9.877-6.927-10.746-7.358-9.764-4.843-20.674-11.585-22.657-12.327-25.156-9.416-51.297-19.434-75.489-31.477-10.526-5.24-21.621-4.413-19.123-15.134.22-.943-.173-4.555.398-5.225 2.236-2.625 12.011-11.511 15.765-11.886 3.607-.361 10.315 4.522 13.883 5.937 19.333 7.668 38.582 19.223 55.945 30.978 1.921 1.3 2.028 4.274 4.058 5.594 8.322 5.41 25.006 16.313 32.849 20.694.33.184 19.408 18.303 18.919 19.272-1.81 3.589-46.006-29.328-49.237-30.231-28.052-7.839-46.643-32.394-73.461-43.866-2.4-1.027-23.516-9.977-20.022-14.555 6.204-8.126 14.084-19.381 19.915-25.207.575-.574 2.145.483 2.62.937 5.168 4.942 9.826 10.233 16.024 13.933 22.382 13.362 44.053 28.902 62.416 47.004 5.255 5.181 45.746 39.571 40.701 45.879-1.382 1.728-16.685-17.888-17.91-18.703-5.752-3.829-12.772-4.681-18.454-8.459-13.626-9.061-25.642-21.664-37.079-33.035-8.481-8.432-17.199-10.295-25.973-20.425-5.834-6.737-17.244-8.16-20.478-17.479-.488-1.404-3.514-6.421-3.137-7.306 1.487-3.499 6.336-5.344 8.646-8.444 6.674-8.957 11.011-15.755 20.064-22.946 4.382-3.481 6.564-8.965 10.363-12.813 4.08-4.134 10.065-6.085 14.141-10.158 16.939-16.926 31.825-30.536 52.453-42.886 7.629-4.568 12.124-11.591 21.081-13.887 4.41-1.13 13.16 5.927 16.813 7.995 19.163 10.847 31.987 29.67 45.556 46.513 4.904 6.086 30.596 35.008 28.033 42.153-2.426 6.767-14.255 10.288-16.125 16.193-3.228 10.194-8.279 17.473-13.916 26.895-3.594 6.006-11.973 7.535-15.548 13.565-14.474 24.415-52.273 64.428-37.843 90.901 1.342 2.461 3.135 4.805 5.44 7.009 4.211 4.026 21.179-.978 28.152 2.353 22.358 10.682 48.243 15.013 71.938 22.886 15.466 5.139 31.383 11.028 47.468 16.399.282.094 13.954 5.199 14.843 3.5.725-1.386.321-9.295 2.107-12.149 2.881-4.602 7.139-7.029 8.756-13.122 2.78-10.472 3.765-23.776 9.783-33.819 5.213-8.699 10.69-15.854 15.491-25.473 3.485-6.983 2.392-14.212 6.526-21.07 7.461-12.374 7.625-34.441 16.987-43.9.5-.505 2.145-2.443 3.232-1.566 2.728 2.2-4.611 37.295-5.594 41.257-3.566 14.377-13.946 21.338-18.977 34.101-7.103 18.018-13.377 35.613-22.762 52.455-.543.973-1.095 1.944-1.659 2.912-.457.784-.92 1.565-1.391 2.345-2.11 3.492-10.324 24.546-13.307 25.228-7.97 1.821-18.685-3.754-26.271-5.358-15.59-3.296-25.885-11.461-40.027-17.001-9.93-3.89-20.837-6.124-30.859-9.425l.295-.885c10.065 3.392 21.079 5.483 31.025 9.54 17.909 7.306 44.935 25.994 65.456 22.558 2.454-.411 14.577-26.608 16.753-30.927 8.584-17.035 14.823-34.168 21.982-51.824 2.347-5.786 7.541-9.073 11.023-13.977 7.416-10.441 7.653-22.184 8.947-34.402.423-3.987 4.626-6.401 5.46-10.32.396-1.863-.049-15.595-.094-15.663-1.376-2.071-5.801 5.914-6.159 7.31-2.994 11.659-7.254 27.514-13.548 38.054-6.264 10.49-9.048 24.894-14.005 36.899-1.988 4.814-8.357 7.258-9.344 13.251-1.97 11.949-3.85 18.74-7.989 29.569-1.511 3.954-6.794 10.452-8.954 13.448-2.369 3.284-.595 11.02-2.883 12.804-2.315 1.805-32.556-9.129-37.612-11.042-30.661-11.603-67.374-16.538-96.637-32.012-4.325-2.287-26.992-.809-28.195-2.04-27.346-28.004 14.518-70.628 31.928-99.321 5.036-8.298 14.775-11.151 19.408-20.413 5.602-11.198 11.689-19.878 19.951-27.901 2.492-2.42 7.575-5.413 6.01-8.514-7.181-14.23-17.205-27.422-27.99-40.997-13.413-16.884-26.279-35.353-45.275-46.314-3.698-2.135-12.197-8.928-16.125-7.975-8.901 2.16-13.353 9.558-20.841 14.061-20.659 12.422-35.367 25.957-52.351 42.953-3.958 3.96-9.814 5.868-13.806 9.805-4.423 4.362-7.045 10.063-12.042 14.099-9.873 7.973-14.658 17.796-23.408 26.499-.302.301-4.092 3.566-3.623 4.037 3.335 3.357 3.859 9.412 8.002 12.509 25.952 19.404 49.082 41.655 74.862 60.999 6.853 5.143 14.812 6.721 21.914 11.463 1.005.671 18.066 22.522 18.266 22.406 2.398-1.396-11.167-23.829-13.26-25.085-13.416-8.057-28.65-18.304-38.179-31.048-10.676-14.278-35.041-29.4-50.763-37.293-5.399-2.711-9.838-6.857-14.046-11.1-.142-.143-5.395-5.884-5.778-5.5-4.027 4.03-13.024 22.087-19.897 24.937-.732.304 1.088.338 1.291.573 5.824 6.741 25.409 16.368 34.114 21.664 14.343 8.726 26.393 19.905 39.718 28.913 6.022 4.071 14.423 4.148 20.982 7.005 7.954 3.465 36.42 29.02 44.452 29.103.207.002-10.411-11.033-15.377-15.819-3.625-3.492-7.227-5.866-7.534-6.069-2.262-1.499-4.414-2.927-6.978-3.97-5.56-2.262-19.428-9.351-22.646-14.124-6.71-9.955-43.725-29.297-55.687-33.664-2.479-.905-13.97-8.072-15.959-7.135-5.042 2.376-10.602 7.949-14.796 11.156-.478.365-.386 4.94-.601 5.754-.33 1.246-1.221 1.331-.658 2.73 2.99 7.433 12.412 8.827 22.865 13.039 19.709 7.942 39.781 14.5 59.52 22.525 10.291 4.184 31.51 20.815 44.868 28.129.534.292 1.055.569 1.562.83.314.162 1.614.911 1.916 1.06 1.157.571 6.605 4.419 7.506 4.463 1.14.056-10.913-9.29-13.006-13.259-1.381-2.618-9.161-9.167-11.888-10.563-7.214-3.694-14.62-7.324-21.957-10.982-20.989-10.463-43.514-18.843-64.301-29.372-9.964-5.047-21.833-6.644-31.444-11.536-.707-.359-3.721 1.497-3.033.055.336-.703-1.952 6.531-1.916 9.104.118 8.185 1.811 20.509 9.071 22.999 11.183 3.837 24.805 5.148 36.586 7.059 15.659 2.54 48.064 11.974 61.667 20.717 8.879 5.706 16.108 9.255 19.172 11.548 3.065 2.293 3.377 4.344 6.582 4.344 1.665 0 16.3 14.473 14.824 13.702-8.05-4.206-33.233-34.504-43.206-36.559-18.421-3.796-34.94-13.227-53.787-16.441-8.083-1.378-18.317-7.615-26.73-4.863-10.324 3.378-43.732 20.555-50.078 20.64-1.195.016-2.209.025-3.147.01-1.993-.034-3.642-.178-5.953-.601-.288-.052-3.113-.62-5.142-1.359-5.716-2.08-13.271-4.466-15.09-5.384-9.269-4.678-39.315-20.921-43.695-23.371-10.655-5.958-19.045-11.361-30.14-16.931-3.122-1.567-8.925-5.262-9.293-5.431-1.247-.57-2.666-1.016-4.107-1.61-2.604-1.072-5.983-2.022-9.081-2.98-7.802-2.414-16.925-4.303-23.538-6.016-12.3122-3.189-26.3272-1.143-38.9813-2.551-13.1882-1.466-30.0134 1.447-43.3896 3.206"/><path d="m501.195 465.493c-10.157-2.875-28.941-13.213-39.709-14.709-12.253-1.702-30.983 3.451-38.142-9.534-1.497-2.715 1.33-6.304-.154-8.831-8.971-15.276 17.23-24.037 23.021-35.724 11.047-22.294 27.209-39.89 41.985-59.471 2.44-3.233 1.824-8.36 3.879-11.848 9.058-15.381 20.152-32.818 32.525-45.074 5.24-5.19 17.003-7.244 23.687-10.589 18.531-9.277 42.469-10.307 58.849-22.475 5.162-3.834 15.554-16.282 23.168-12.871 5.569 2.495-4.103 8.134-5.087 10.726-.577 1.521-.849 5.306-3.36 10.327-1.233 2.467-2.668 7.805-2.66 7.785 1.179-2.68 8.1-17.863 9.145-21.162.808-2.551-5.679-7.961-6.023-5.308-2.396 18.48-18.261 31.481-26.151 47.262-3.829 7.657-5.471 15.863-8.377 23.707-2.726 7.358-8.391 11.961-12.537 18.192-6.675 10.034-10.998 21.826-19.45 30.346-4.664 4.703-16.083 3.464-22.262 4.712-8.982 1.815-20.133 5.689-27.3 11.388-15.053 11.971-34.572 18.603-50.912 28.468-2.29 1.383-16.059 8.716-15.449 12.293.244 1.434 2.284-1.882 3.64-2.406 3.439-1.329 6.474-2.564 10.029-3.541 16.379-4.5 28.865-14.294 44.333-20.488 9.36-3.749 18.935-3.861 28.505-7.09 6.239-2.105 11.614-6.896 17.922-8.508 6.124-1.565 16.03-1.057 20.867-5.898 11.044-11.052 15.455-29.458 22.364-43.291 8.049-16.118 16.158-27.267 26.897-41.474 2.294-3.034 3.231-12.227 5.458-13.392 4.465-2.335 15.63-.189 20.784-.205.167 0 3.011-.211 3.099-.023.388.83-16.944 29.559-18.124 35.005-3.197 14.75-2.116 30.047-7.334 44.412-3.428 9.437-11.334 16.807-13.938 26.005-1.821 6.435-6.721 27.282-12.642 30.631-7.238 4.093-18.115 4.02-26.212 5.644-19.264 3.865-43.223 2.415-62.986 2.395-7.692-.008-14.97.22-22.458 1.48-2.057.346-3.888 1.313-5.797 1.98-.918.32-3.22 2.077-2.284 1.813 1.565-.443 1.894 2.411 4.751 2.882 9.126 1.504 18.21 1.607 27.392 3.421 16.981 3.354 38.433 3.446 55.735 1.499 6.192-.697 23.88 1.439 27.645-4.866 8.24-13.799 15.834-28.118 23.89-41.819 9.587-16.304 7.601-38.414 18.57-54.855 3.196-4.79 17.588-45.562 22.05-41.486 5.318 4.859.702 23.39-.39 29.783-1.309 7.656-.907 15.63-1.994 23.392-.691 4.932-5.676 7.599-6.503 12.163-2.417 13.357-11.437 28.132-19.437 39.039-2.589 3.531-2.534 8.545-5.014 11.96-6.381 8.786-4.037 31.103-18.137 31.566-.799.027-.633-2.881-.632-3.399.016-5.009 6.403-11.911 9.065-16.179 5.626-9.022 8.259-20.07 12.486-29.88 5.347-12.406 6.381-27.643 11.442-40.342 3.018-7.575 10.257-14.728 11.87-22.991.488-2.502 4.207-20.837 7.47-19.286.583.278.403 1.882.408 2.415.038 4.022 2.833 18.105 4.716 27.18.695 3.35 1.472 5.637 1.317 7.228-.04.409-.132.951-.277 1.213-1.979 3.58-2.657-11.599-3.555-12.165-.511-.322-.141 4.101-.214 4.491-.69 3.688-1.663 7.997-4.01 11.132-7.255 9.697-10.773 25.845-12.973 37.847-2.251 12.285-12.326 20.567-16.978 31.621-2.274 5.405-2.712 11.888-5.437 17.34-4.298 8.597-13.137 18.731-16.614 25.114-2.236 4.105-35.977-1.941-37.834-2.413-29.383-7.471-59.226-13.553-88.712-19.43-2.811-.56-29.795-2.293-31.313-.641-1.211 1.319 4.648 1.877 4.937 1.94 4.532.989 9.438 2.179 13.516 4.481 13.028 7.353 31.94 11.399 46.83 12.879 11.701 1.163 22.513 7.533 33.068 12.002 10.912 4.619 24.786 6.204 36.342 7.852 3.758.535 20.776 6.919 23.882 4.47 2.555-2.015-2.49-6.191-2.472-9.446.108-19.242-6.207-22.755-28.643-27.498-37.461-7.918-75.387-13.29-113.182-17.887-8.117-.988-14.976 2.412-22.891 2.519-.171.002-2.466-.083-2.495.027-.234.896 6.584 8.806 7.471 10.576.291.58-1.104 8.104-.426 8.308 19.847 5.973 44.389 6.261 64.575 14.965 14.02 6.045 28.306 11.633 42.753 16.37 10.997 3.606 22.172 7.637 33.483 10.426 2.72.671 17.411 4.441 17.386 4.204-.411-3.838 8.167-16.215 10.043-19.901 1.059-2.083 2.278-8.615 2.494-9.001 15.861-28.447 29.272-47.922 35.255-81.132 1.31-7.273 12.738-25.967 18.613-29.675 22.39-14.134 51.567.252 76.277-2.248 24.943-2.523 41.184-15.356 64.14-24.505l.48 1.442c-23.047 9.253-39.518 21.922-64.62 24.404-19.04 1.882-62.002-12.042-76.848 2.628-24.178 23.891-17.431 65.043-40.413 86.706-5.24 4.94-2.242 18.038-10.698 19.975-2.058.471-1.431 9.949-3.413 10.677-3.753 1.378-5.43 18.925-10.862 22.21-3.98 2.407-45.418-14.328-53.5-15.502-13.46-1.954-30.306-10.93-42.501-17.029-14.483-7.244-33.306-7.519-48.868-11.959-2.645-.755-13.467-1.112-14.891-3.055-1.903-2.597 1.689-5.986-.426-9.159-1.094-1.641-7.561-9.401-5.504-10.884 6.335-4.568 33.434-1.364 40.923-.449 23.717 2.899 48.508 4.655 71.448 12.519 10.737 3.681 22.414 1.202 33.021 6.027 20.724 9.429 22.651 4.712 22.77 25.901.015 2.815 2.418 8.043 1.758 9.957-.757 2.196-21.882-3.611-24.266-3.952-11.66-1.67-25.556-3.362-36.522-8.119-10.424-4.521-21.214-10.787-32.809-11.953-14.883-1.498-34.055-5.584-46.994-13.073-1.969-1.139-19.831-6.286-18.478-7.553 4.203-3.934 26.637-.633 31.57.357 21.609 4.338 44.51 5.359 65.985 12.515 8.617 2.871 19.054 7.08 27.925 7.96 6.425.637 28.003 6.253 33.46 1.385 10.57-9.43 14.956-29.502 20.478-42.172 4.021-9.228 11.366-17.18 15.972-26.275 3.139-6.197 4.716-17.479 6.477-24.456 2.64-10.46 11.439-20.885 11.48-31.864.001-.367-.139-2.112.382-2.368 3.771-1.85.719 15.016 3.692 12.049 1.5-1.497.605-3.931-.021-7.106-1.241-6.286-4.289-14.575-5.637-17.952-.858-2.15-1.592-5.807-.935-8.181.062-.227.856-4.256.303-3.693-5.131 5.219-3.861 15.136-6.498 21.552-2.908 7.076-8.705 13.301-11.489 20.235-5.988 14.911-9.385 30.756-13.534 46.561-2.552 9.725-8.855 19.77-13.454 28.96-.302.606-7.482 13.288-6.528 13.344 11.618.69 16.623-28.235 20.214-37.205 6.221-15.542 18.455-28.377 22.039-44.921.965-4.458 5.777-7.015 6.473-11.793.772-5.303 6.616-36.969 5.586-39.637-1.381-3.575-3.268-9.887-2.93-13.487.051-.537-5.039 8.172-5.814 9.356-3.445 5.261-8.21 13.886-9.519 20.45-1.098 5.512-5.172 10.714-8.055 15.448-7.739 12.708-12.874 33.9-14.848 48.45-.999 7.363-8.71 14.695-12.557 20.999-3.753 6.151-6.78 21.871-13.643 25.197-17.649 8.554-45.486 4.842-64.599 3.579-5.505-.363-46.42-2.763-49.302-5.816-7.069-7.487 18.526-8.573 23.85-8.588 27.001-.075 69.832 1.762 93.959-7.943 5.355-2.154 9.245-22.114 11.312-27.261 5.535-13.78 13.711-24.387 18.049-39.299 3.841-13.201.781-26.748 7.135-39.527 2.036-4.093 13.478-27.973 16.271-28.355.954-.13-1.927-.019-2.89-.023-1.56-.005-2.938.519-4.596.513-2.13-.007-15.207-1.909-15.994-.432-1.319 2.477-.699 6.937-2.628 9.826-5.704 8.542-13.387 15.754-19.413 23.848-14.22 19.098-15.598 47.541-32.585 64.516-4.932 4.929-14.803 4.554-21.054 6.079-6.299 1.537-11.755 6.4-18.011 8.461-9.556 3.146-19.082 3.166-28.389 6.884-15.555 6.214-28.012 15.972-44.5 20.435-3.497.946-6.533 2.211-9.935 3.446-.167.061-4.363 1.787-4.344 1.587.397-4.268 21.319-16.428 24.99-18.625 8.577-5.134 17.462-8.512 26.411-12.949 9.006-4.465 16.804-13.588 26.581-16.062 6.333-1.603 35.127-6.777 37.661-9.291 8.461-8.391 12.779-20.513 19.478-30.54 4.044-6.054 9.719-10.64 12.416-17.74 3.032-7.986 4.67-16.361 8.592-24.204 5.289-10.578 14.24-21.583 20.856-31.344 3.181-4.693 2.528-11.555 5.894-16.217.865-1.198 4.823 1.727 5.345 2.091 3.889 2.711-2.221 10.267-3.417 13.782-.19.556-4.703 16.542-6.554 14.503-2.777-3.06 13.713-30.367 12.611-31.002-6.625-3.821-18.301 9.715-22.747 13.08-15.529 11.754-44.76 16.258-63.922 24.435-24.417 10.42-36.776 30.588-50.587 53.137-2.193 3.581-1.555 8.684-4.107 12.106-6.25 8.382-13.985 17.469-21.39 24.802-9.211 9.124-13.825 24.789-20.967 35.503-8.011 12.016-29.362 18.491-22.394 34.145 1.148 2.578-1.221 5.614-.153 8.138 5.462 12.912 26.312 7.759 37.715 9.43 10.741 1.575 28.564 11.521 38.745 14.457"/></g></svg>