<svg clip-rule="evenodd" fill-rule="evenodd" stroke-linecap="round" stroke-linejoin="round" viewBox="0 0 570 450" xmlns="http://www.w3.org/2000/svg"><path d="m282.68 52.4536c.364 30.0629.527 59.7774.757 89.9014.032 4.142-1.636 28.86-.295 30.242 1.519 1.566 5.008 2.506 7.164 3.937.82.544 1.73 1.491 2.353 2.118.488.491.757 1.376.415 1.652-.341.276-10.407.881-12.124 1.155-.636.102-10.214-1.131-8.683 1.568.356.627 1.018.431 1.608.423 5.881-.075 11.85-.447 17.709-.464.873-.003 8.996-.264 6.708 2.83-3.558 4.807-19.698 1.506-24.703.269-.794-.197-2.466-.545-3.758.077-1.581.762-2.665 2.575-1.752 2.907 2.459.896 6.275-.886 9.05-.494 5.51.779 11.28 2.085 16.733 2.084.585 0 8.268-.144 6.792 1.896-1.34 1.853-23.204.051-27.709.051-1.216 0-7.771-1.037-8.237.441-.863 2.736 24.882.764 28.533 1.296 1.143.166 9.091 1.342 7.221 4.023-3.141 4.504-33.477-4.892-36.097.864-1.419 3.118 7.119 2.992 8.633 3.237 8.808 1.422 19.664-3.13 28.301-.246.626.21 1.839 1.178 1.501 1.955-2.303 5.298-23.608.758-29.158.771-1.121.003-9.211-.489-9.358.879-.297 2.758 27.213 2.67 31.437 2.67.883 0 9.615.444 8.466 2.885-2.493 5.299-26.066.556-31.707.593-.839.006-9.644-.132-9.529 1.377.219 2.857-.074 5.473-1.145 7.554-.052.1-.142-.007-.196.091-.04.071.225-.079.185-.01-.086.148-.192.367-.368.554-.208.219-.887.909-1.01 1.024-.071.066 2.24-3.844 1.255-1.022-.355 1.015-1 1.519-1.289 1.721-.096.067-1.383.861-1.479.906-.963.443-1.133.542-1.992 1.026-.876.494-1.87.805-3.63 2.38-.386.345-4.97 4.32-9.593 8.729-.357.339-1.516 1.242-1.897 1.583-.448.401-1.248 1.319-1.702 1.753-.795.76-1.016 1.042-1.41 1.421-.987.949-2.326 2.352-3.062 3.227-.464.551-.84 1.019-1.159 1.434-.698.907-1.125 1.557-1.604 2.249-.947 1.369-1.824 2.718-2.867 4.823-.088.177-.178.36-.273.551-.476.958-1.051 2.107-1.792 3.537-.769 1.486-1.64 4.006-1.734 4.218-.931 2.081-1.797 4.946-2.551 6.666-.218.497-.89 3.747-1.032 4.521-1.353 7.39.394 26.568 5.524 38.623 4.735 11.124 12.096 17.756 14.627 19.947 4.745 4.107 12.707 8.834 13.7 9.375 4.476 2.44 7.819 3.262 10.122 3.948 2.124.632 4.462 1.256 6.623 1.59 1.879.289 3.576.296 5.491.681 5.085 1.023 10.349.31 14.927-.034 9.296-.7 19.337-6.103 27.639-12.646 1.736-1.369 3.859-3.307 5.788-5.156 1.191-1.142 2.307-2.25 3.212-3.169 6.723-6.83 7.862-8.552 10.765-14.45 7.016-14.253 4.658-24.643 1.513-39.758-.673-3.233-1.667-6.632-2.862-9.633-.075-.187-3.224-8.662-5.178-12.092-2.922-5.129-1.884-3.506-3.767-6.118-3.529-4.894-8.355-10.842-12.141-13.321-6.008-3.933-16.689-12.889-25.889-6.124-3.784 2.783-3.744 11.397-3.21 15.496 1.804 13.828 5.271 27.658 7.62 41.592 1.146 6.802 2.749 11.188 7.416 16.307 1.679 1.841 2.386 2.832 4.848 3.087.786.081 1.309-.402 1.58-.781 5.368-7.516-7.852-30.709-19.304-31.961-1.412-.154-2.809.373-4.126 1.214-2.801 1.79-4.441 8.249-5.171 11.212-.672 2.728-.951 5.468-1.354 8.294-.42 2.945-.262 7.347.889 9.649 2.496 4.993 6.474-3.132 6.897-6.644.748-6.207-4.687-18.088-9.959-21.207-9.69-5.732-20.551 12.396-21.567 21.249-.297 2.582-.043 6.221 3.173 7.914 4.975 2.618 7.721-6.304 8.941-11.19 1.223-4.893 4.42-32.75 6.516-35.07l.62.207c-.869.694-.343 7.364-.639 8.828-1.964 9.716-4.11 19.523-6.119 29.409-.68 3.346-4.059 11.533-9.054 9.559-2.158-.853-3.463-2.395-4.098-4.363-2.877-8.925 8.041-26.629 15.881-28.776 5.796-1.587 11.172 4.582 14.613 11.633 2.581 5.29 3.004 8.252 2.75 11.638-.266 3.558-1.274 6.849-4.697 9.521-3.32 2.591-5.328-3.279-5.417-6.094-.21-6.705 2.053-25.857 9.842-27.247 7.883-1.407 17.703 9.439 21.239 17.649.571 1.326 1.211 3.332 1.408 4.415.442 2.425 2.017 10.346-1.312 11.598-5.141 1.933-12.182-8.82-13.676-14.553-1.71-6.56-1.362-7.104-1.719-9.969-1.623-13.037-7.282-26.008-7.271-39.155.003-3.731.148-12.647 4.46-14.429 10.928-4.517 18.348.956 25.849 6.509 5.558 4.114 8.946 8.505 13.304 14.76 1.969 2.827 2.517 3.843 4.135 6.775 2.333 4.224 16.895 39.109 6 60.612-2.465 4.865-8.083 12.331-13.564 17.598-1.974 1.897-3.634 3.318-5.784 4.982-4.946 3.827-5.97 4.36-11.533 7.676-15.873 9.46-43.733 6.779-59.376-3.498-.578-.38-7.313-5.027-9.861-7.162-9.154-7.671-15.695-20.242-18.36-30.848-1.189-4.736-4.062-24.052-.799-31.716.727-1.706 1.4-3.777 1.834-4.769 3.71-8.49-4.197 11.21-.958 2.175 2.405-6.709 7.711-18.502 12.601-23.377 2.01-2.004 3.275-3.771 5.217-5.465 2.505-2.186 5.167-4.822 7.664-6.787 1.384-1.089 3.969-3.556 5.457-4.55 4.052-2.707 3.858-2.211 5.304-3.37.676-.543 2.333-3.722 2.387-4.002.153-.802-.911 2.467-.55 1.489.941-2.551-.098-6.399 1.284-7.35 6.939-4.776 22.344.679 30.644.699 1.28.003 9.854-1.068 9.963-2.066.24-2.188-8.135-2.144-9.696-2.145-4.177 0-29.143-.694-30.05-2.187-1.916-3.153 7.589-2.634 8.668-2.634 5.232.004 27.841 3.876 29.745-.384.717-1.605-7.902-1.305-9.06-1.307-4.584-.009-29.498 1.922-29.35-2.88.159-5.201 32.936-1.393 35.997-1.394.012 0-.002-1.069.008-1.162.114-1.099-7.93-2.709-9.212-2.702-3.932.023-27.186 2.692-26.286-1.61.435-2.076 7.114-.852 8.623-.852 8.654 0 19.248 2.108 27.14.515.316-.063-7.687-1.142-8.932-1.397-7.242-1.485-14.749-1.542-22.219-1.616-.94-.009-1.365-.292-1.35-1.17.108-6.333 12.973-.822 15.587-.277 3.867.807 11.173-1.099 14.628-2.279 2.174-.743-5.038-2.278-5.564-2.28-1.878-.004-23.022 1.022-20.399-1.618 2.414-2.43 11.759-.684 15.519-1.292 1.226-.198 4.542-.001 5.511-.239.329-.081-2.471.39-.467-.094.23-.055.286-.932-.009-1.249-.858-.924-1.969-2.076-3.243-2.724-2.478-1.262-5.599-2.082-6.972-3.984-1.085-1.504.705-25.425.718-28.354.137-30.707-.988-60.9789-.625-91.611" stroke="#000" stroke-linecap="butt" stroke-linejoin="round" stroke-width=".5"/></svg>